<svg xmlns="http://www.w3.org/2000/svg" xmlns:xlink="http://www.w3.org/1999/xlink" x="0" y="0" class="fretboard_bg" enable-background="new 0 0 768 576" version="1.1" viewBox="0 0 768 576" xml:space="preserve"><g class="fret_bg"><rect width="608" height="372" x="78" y="102" fill="#FFF"/></g><g class="frets">\<rect width="8" height="360" x="92" y="108" fill="#C7C8CA"/><rect width="8" height="360" x="188" y="108" fill="#C7C8CA"/><rect width="8" height="360" x="284" y="108" fill="#C7C8CA"/><rect width="8" height="360" x="380" y="108" fill="#C7C8CA"/><rect width="8" height="360" x="476" y="108" fill="#C7C8CA"/><rect width="8" height="360" x="572" y="108" fill="#C7C8CA"/><rect width="8" height="360" x="668" y="108" fill="#C7C8CA"/></g><g class="strings"><rect width="608" height="12" x="78" y="102"/><rect width="608" height="12" x="78" y="174"/><rect width="608" height="12" x="78" y="246"/><rect width="608" height="12" x="78" y="318"/><rect width="608" height="12" x="78" y="390"/><rect width="608" height="12" x="78" y="462"/></g><g class="nut"><rect width="22" height="372" x="78" y="102"/></g></svg>