<svg xmlns="http://www.w3.org/2000/svg" xmlns:xlink="http://www.w3.org/1999/xlink" x="0" y="0" class="fretboard_bg" enable-background="new 0 0 792 576" version="1.1" viewBox="0 0 792 576" xml:space="preserve"><g class="fret_bg"><rect width="648" height="372" x="72" y="102" fill="#FFF"/></g><g class="frets"><rect width="8" height="360" x="84" y="108" fill="#C7C8CA"/><rect width="8" height="360" x="172" y="108" fill="#C7C8CA"/><rect width="8" height="360" x="260" y="108" fill="#C7C8CA"/><rect width="8" height="360" x="348" y="108" fill="#C7C8CA"/><rect width="8" height="360" x="436" y="108" fill="#C7C8CA"/><rect width="8" height="360" x="524" y="108" fill="#C7C8CA"/><rect width="8" height="360" x="612" y="108" fill="#C7C8CA"/><rect width="8" height="360" x="700" y="108" fill="#C7C8CA"/></g><g class="strings"><rect width="648" height="12" x="72" y="462"/><rect width="648" height="12" x="72" y="390"/><rect width="648" height="12" x="72" y="318"/><rect width="648" height="12" x="72" y="246"/><rect width="648" height="12" x="72" y="174"/><rect width="648" height="12" x="72" y="102"/></g><g class="nut"><rect width="20" height="368" x="72" y="106"/></g></svg>